<svg width="281" height="266" viewBox="0 0 281 266" fill="none" xmlns="http://www.w3.org/2000/svg">
<rect width="281" height="266" rx="12" fill="#F3F4F8"/>
<rect x="15" y="14" width="252" height="238.548" rx="10.7616" fill="white"/>
<path d="M46.7983 84V80.8182L56.642 70.6193C57.6932 69.5114 58.5597 68.5407 59.2415 67.7074C59.9328 66.8646 60.4489 66.0644 60.7898 65.3068C61.1307 64.5492 61.3011 63.7443 61.3011 62.892C61.3011 61.9261 61.0739 61.0928 60.6193 60.392C60.1648 59.6818 59.5445 59.1373 58.7585 58.7585C57.9725 58.3703 57.0871 58.1761 56.1023 58.1761C55.0606 58.1761 54.1515 58.3892 53.375 58.8153C52.5985 59.2415 52.0019 59.8428 51.5852 60.6193C51.1686 61.3958 50.9602 62.3049 50.9602 63.3466H46.7699C46.7699 61.5758 47.1771 60.0275 47.9915 58.7017C48.8059 57.3759 49.9233 56.3485 51.3438 55.6193C52.7642 54.8807 54.3788 54.5114 56.1875 54.5114C58.0152 54.5114 59.625 54.8759 61.017 55.6051C62.4186 56.3248 63.5123 57.3097 64.2983 58.5597C65.0843 59.8002 65.4773 61.2017 65.4773 62.7642C65.4773 63.8438 65.2737 64.8996 64.8665 65.9318C64.4688 66.964 63.7727 68.1146 62.7784 69.3835C61.7841 70.643 60.4015 72.1723 58.6307 73.9716L52.8494 80.0227V80.2358H65.946V84H46.7983ZM74.1847 84.2699C73.4081 84.2699 72.7405 83.9953 72.1818 83.446C71.6231 82.8873 71.3438 82.215 71.3438 81.429C71.3438 80.6525 71.6231 79.9896 72.1818 79.4403C72.7405 78.8816 73.4081 78.6023 74.1847 78.6023C74.9612 78.6023 75.6288 78.8816 76.1875 79.4403C76.7462 79.9896 77.0256 80.6525 77.0256 81.429C77.0256 81.9498 76.893 82.428 76.6278 82.8636C76.3722 83.2898 76.0312 83.6307 75.6051 83.8864C75.179 84.142 74.7055 84.2699 74.1847 84.2699ZM91.7912 84.3977C90.0109 84.3977 88.4105 84.0568 86.9901 83.375C85.5791 82.6837 84.4522 81.7367 83.6094 80.5341C82.7666 79.3314 82.3168 77.9583 82.2599 76.4148H86.5213C86.6255 77.6648 87.1795 78.6922 88.1832 79.4972C89.187 80.3021 90.3897 80.7045 91.7912 80.7045C92.9086 80.7045 93.8982 80.4489 94.7599 79.9375C95.6312 79.4167 96.313 78.7017 96.8054 77.7926C97.3073 76.8835 97.5582 75.8466 97.5582 74.6818C97.5582 73.4981 97.3026 72.4422 96.7912 71.5142C96.2798 70.5862 95.5743 69.857 94.6747 69.3267C93.7846 68.7964 92.7618 68.5265 91.6065 68.517C90.7259 68.517 89.8404 68.6686 88.9503 68.9716C88.0601 69.2746 87.3404 69.6723 86.7912 70.1648L82.7713 69.5682L84.4048 54.9091H100.399V58.6733H88.0554L87.1321 66.8125H87.3026C87.8707 66.2633 88.6236 65.804 89.5611 65.4347C90.508 65.0653 91.5213 64.8807 92.6009 64.8807C94.3717 64.8807 95.9484 65.3021 97.331 66.1449C98.723 66.9877 99.8168 68.1383 100.612 69.5966C101.417 71.0455 101.815 72.7121 101.805 74.5966C101.815 76.4811 101.389 78.1619 100.527 79.6392C99.6747 81.1165 98.491 82.2812 96.9759 83.1335C95.4702 83.9763 93.742 84.3977 91.7912 84.3977ZM107.391 84V54.9091H111.781V80.2216H124.962V84H107.391Z" fill="black"/>
<path d="M52.688 107.112C52.688 108.04 52.368 108.813 51.728 109.432C51.0987 110.04 50.1333 110.344 48.832 110.344H46.688V115H45.232V103.848H48.832C50.0907 103.848 51.0453 104.152 51.696 104.76C52.3573 105.368 52.688 106.152 52.688 107.112ZM48.832 109.144C49.6427 109.144 50.24 108.968 50.624 108.616C51.008 108.264 51.2 107.763 51.2 107.112C51.2 105.736 50.4107 105.048 48.832 105.048H46.688V109.144H48.832ZM55.9536 103.16V115H54.4976V103.16H55.9536ZM57.8911 110.584C57.8911 109.688 58.0725 108.904 58.4351 108.232C58.7978 107.549 59.2938 107.021 59.9231 106.648C60.5631 106.275 61.2725 106.088 62.0511 106.088C62.8191 106.088 63.4858 106.253 64.0511 106.584C64.6165 106.915 65.0378 107.331 65.3151 107.832V106.232H66.7871V115H65.3151V113.368C65.0271 113.88 64.5951 114.307 64.0191 114.648C63.4538 114.979 62.7925 115.144 62.0351 115.144C61.2565 115.144 60.5525 114.952 59.9231 114.568C59.2938 114.184 58.7978 113.645 58.4351 112.952C58.0725 112.259 57.8911 111.469 57.8911 110.584ZM65.3151 110.6C65.3151 109.939 65.1818 109.363 64.9151 108.872C64.6485 108.381 64.2858 108.008 63.8271 107.752C63.3791 107.485 62.8831 107.352 62.3391 107.352C61.7951 107.352 61.2991 107.48 60.8511 107.736C60.4031 107.992 60.0458 108.365 59.7791 108.856C59.5125 109.347 59.3791 109.923 59.3791 110.584C59.3791 111.256 59.5125 111.843 59.7791 112.344C60.0458 112.835 60.4031 113.213 60.8511 113.48C61.2991 113.736 61.7951 113.864 62.3391 113.864C62.8831 113.864 63.3791 113.736 63.8271 113.48C64.2858 113.213 64.6485 112.835 64.9151 112.344C65.1818 111.843 65.3151 111.261 65.3151 110.6ZM73.5196 106.072C74.5863 106.072 75.4503 106.397 76.1116 107.048C76.773 107.688 77.1036 108.616 77.1036 109.832V115H75.6636V110.04C75.6636 109.165 75.445 108.499 75.0076 108.04C74.5703 107.571 73.973 107.336 73.2156 107.336C72.4476 107.336 71.8343 107.576 71.3756 108.056C70.9276 108.536 70.7036 109.235 70.7036 110.152V115H69.2476V106.232H70.7036V107.48C70.9916 107.032 71.381 106.685 71.8716 106.44C72.373 106.195 72.9223 106.072 73.5196 106.072ZM82.586 115.144C81.914 115.144 81.3113 115.032 80.778 114.808C80.2447 114.573 79.8233 114.253 79.514 113.848C79.2047 113.432 79.034 112.957 79.002 112.424H80.506C80.5487 112.861 80.7513 113.219 81.114 113.496C81.4873 113.773 81.9727 113.912 82.57 113.912C83.1247 113.912 83.562 113.789 83.882 113.544C84.202 113.299 84.362 112.989 84.362 112.616C84.362 112.232 84.1913 111.949 83.85 111.768C83.5087 111.576 82.9807 111.389 82.266 111.208C81.6153 111.037 81.082 110.867 80.666 110.696C80.2607 110.515 79.9087 110.253 79.61 109.912C79.322 109.56 79.178 109.101 79.178 108.536C79.178 108.088 79.3113 107.677 79.578 107.304C79.8447 106.931 80.2233 106.637 80.714 106.424C81.2047 106.2 81.7647 106.088 82.394 106.088C83.3647 106.088 84.1487 106.333 84.746 106.824C85.3433 107.315 85.6633 107.987 85.706 108.84H84.25C84.218 108.381 84.0313 108.013 83.69 107.736C83.3593 107.459 82.9113 107.32 82.346 107.32C81.8233 107.32 81.4073 107.432 81.098 107.656C80.7887 107.88 80.634 108.173 80.634 108.536C80.634 108.824 80.7247 109.064 80.906 109.256C81.098 109.437 81.3327 109.587 81.61 109.704C81.898 109.811 82.2927 109.933 82.794 110.072C83.4233 110.243 83.9353 110.413 84.33 110.584C84.7247 110.744 85.0607 110.989 85.338 111.32C85.626 111.651 85.7753 112.083 85.786 112.616C85.786 113.096 85.6527 113.528 85.386 113.912C85.1193 114.296 84.7407 114.6 84.25 114.824C83.77 115.037 83.2153 115.144 82.586 115.144ZM93.563 107.848C93.851 107.347 94.2777 106.931 94.843 106.6C95.419 106.259 96.0857 106.088 96.843 106.088C97.6217 106.088 98.3257 106.275 98.955 106.648C99.595 107.021 100.096 107.549 100.459 108.232C100.822 108.904 101.003 109.688 101.003 110.584C101.003 111.469 100.822 112.259 100.459 112.952C100.096 113.645 99.595 114.184 98.955 114.568C98.3257 114.952 97.6217 115.144 96.843 115.144C96.0963 115.144 95.435 114.979 94.859 114.648C94.2937 114.307 93.8617 113.885 93.563 113.384V119.16H92.107V106.232H93.563V107.848ZM99.515 110.584C99.515 109.923 99.3817 109.347 99.115 108.856C98.8483 108.365 98.4857 107.992 98.027 107.736C97.579 107.48 97.083 107.352 96.539 107.352C96.0057 107.352 95.5097 107.485 95.051 107.752C94.603 108.008 94.2403 108.387 93.963 108.888C93.6963 109.379 93.563 109.949 93.563 110.6C93.563 111.261 93.6963 111.843 93.963 112.344C94.2403 112.835 94.603 113.213 95.051 113.48C95.5097 113.736 96.0057 113.864 96.539 113.864C97.083 113.864 97.579 113.736 98.027 113.48C98.4857 113.213 98.8483 112.835 99.115 112.344C99.3817 111.843 99.515 111.256 99.515 110.584ZM110.696 106.232V115H109.24V113.704C108.962 114.152 108.573 114.504 108.072 114.76C107.581 115.005 107.037 115.128 106.44 115.128C105.757 115.128 105.144 114.989 104.6 114.712C104.056 114.424 103.624 113.997 103.304 113.432C102.994 112.867 102.84 112.179 102.84 111.368V106.232H104.28V111.176C104.28 112.04 104.498 112.707 104.936 113.176C105.373 113.635 105.97 113.864 106.728 113.864C107.506 113.864 108.12 113.624 108.568 113.144C109.016 112.664 109.24 111.965 109.24 111.048V106.232H110.696ZM114.61 107.656C114.866 107.155 115.229 106.765 115.698 106.488C116.178 106.211 116.759 106.072 117.442 106.072V107.576H117.058C115.426 107.576 114.61 108.461 114.61 110.232V115H113.154V106.232H114.61V107.656ZM118.579 110.6C118.579 109.693 118.76 108.904 119.123 108.232C119.485 107.549 119.987 107.021 120.627 106.648C121.277 106.275 122.019 106.088 122.851 106.088C123.928 106.088 124.813 106.349 125.507 106.872C126.211 107.395 126.675 108.12 126.899 109.048H125.331C125.181 108.515 124.888 108.093 124.451 107.784C124.024 107.475 123.491 107.32 122.851 107.32C122.019 107.32 121.347 107.608 120.835 108.184C120.323 108.749 120.067 109.555 120.067 110.6C120.067 111.656 120.323 112.472 120.835 113.048C121.347 113.624 122.019 113.912 122.851 113.912C123.491 113.912 124.024 113.763 124.451 113.464C124.877 113.165 125.171 112.739 125.331 112.184H126.899C126.664 113.08 126.195 113.8 125.491 114.344C124.787 114.877 123.907 115.144 122.851 115.144C122.019 115.144 121.277 114.957 120.627 114.584C119.987 114.211 119.485 113.683 119.123 113C118.76 112.317 118.579 111.517 118.579 110.6ZM133.193 106.072C133.855 106.072 134.452 106.216 134.985 106.504C135.519 106.781 135.935 107.203 136.233 107.768C136.543 108.333 136.697 109.021 136.697 109.832V115H135.257V110.04C135.257 109.165 135.039 108.499 134.601 108.04C134.164 107.571 133.567 107.336 132.809 107.336C132.041 107.336 131.428 107.576 130.969 108.056C130.521 108.536 130.297 109.235 130.297 110.152V115H128.841V103.16H130.297V107.48C130.585 107.032 130.98 106.685 131.481 106.44C131.993 106.195 132.564 106.072 133.193 106.072ZM138.532 110.584C138.532 109.688 138.713 108.904 139.076 108.232C139.438 107.549 139.934 107.021 140.564 106.648C141.204 106.275 141.913 106.088 142.692 106.088C143.46 106.088 144.126 106.253 144.692 106.584C145.257 106.915 145.678 107.331 145.956 107.832V106.232H147.428V115H145.956V113.368C145.668 113.88 145.236 114.307 144.66 114.648C144.094 114.979 143.433 115.144 142.676 115.144C141.897 115.144 141.193 114.952 140.564 114.568C139.934 114.184 139.438 113.645 139.076 112.952C138.713 112.259 138.532 111.469 138.532 110.584ZM145.956 110.6C145.956 109.939 145.822 109.363 145.556 108.872C145.289 108.381 144.926 108.008 144.468 107.752C144.02 107.485 143.524 107.352 142.98 107.352C142.436 107.352 141.94 107.48 141.492 107.736C141.044 107.992 140.686 108.365 140.42 108.856C140.153 109.347 140.02 109.923 140.02 110.584C140.02 111.256 140.153 111.843 140.42 112.344C140.686 112.835 141.044 113.213 141.492 113.48C141.94 113.736 142.436 113.864 142.98 113.864C143.524 113.864 144.02 113.736 144.468 113.48C144.926 113.213 145.289 112.835 145.556 112.344C145.822 111.843 145.956 111.261 145.956 110.6ZM152.992 115.144C152.32 115.144 151.718 115.032 151.184 114.808C150.651 114.573 150.23 114.253 149.92 113.848C149.611 113.432 149.44 112.957 149.408 112.424H150.912C150.955 112.861 151.158 113.219 151.52 113.496C151.894 113.773 152.379 113.912 152.976 113.912C153.531 113.912 153.968 113.789 154.288 113.544C154.608 113.299 154.768 112.989 154.768 112.616C154.768 112.232 154.598 111.949 154.256 111.768C153.915 111.576 153.387 111.389 152.672 111.208C152.022 111.037 151.488 110.867 151.072 110.696C150.667 110.515 150.315 110.253 150.016 109.912C149.728 109.56 149.584 109.101 149.584 108.536C149.584 108.088 149.718 107.677 149.984 107.304C150.251 106.931 150.63 106.637 151.12 106.424C151.611 106.2 152.171 106.088 152.8 106.088C153.771 106.088 154.555 106.333 155.152 106.824C155.75 107.315 156.07 107.987 156.112 108.84H154.656C154.624 108.381 154.438 108.013 154.096 107.736C153.766 107.459 153.318 107.32 152.752 107.32C152.23 107.32 151.814 107.432 151.504 107.656C151.195 107.88 151.04 108.173 151.04 108.536C151.04 108.824 151.131 109.064 151.312 109.256C151.504 109.437 151.739 109.587 152.016 109.704C152.304 109.811 152.699 109.933 153.2 110.072C153.83 110.243 154.342 110.413 154.736 110.584C155.131 110.744 155.467 110.989 155.744 111.32C156.032 111.651 156.182 112.083 156.192 112.616C156.192 113.096 156.059 113.528 155.792 113.912C155.526 114.296 155.147 114.6 154.656 114.824C154.176 115.037 153.622 115.144 152.992 115.144ZM166.248 110.28C166.248 110.557 166.232 110.851 166.2 111.16H159.192C159.245 112.024 159.538 112.701 160.072 113.192C160.616 113.672 161.272 113.912 162.04 113.912C162.669 113.912 163.192 113.768 163.608 113.48C164.034 113.181 164.333 112.787 164.504 112.296H166.072C165.837 113.139 165.368 113.827 164.664 114.36C163.96 114.883 163.085 115.144 162.04 115.144C161.208 115.144 160.461 114.957 159.8 114.584C159.149 114.211 158.637 113.683 158.264 113C157.89 112.307 157.704 111.507 157.704 110.6C157.704 109.693 157.885 108.899 158.248 108.216C158.61 107.533 159.117 107.011 159.768 106.648C160.429 106.275 161.186 106.088 162.04 106.088C162.872 106.088 163.608 106.269 164.248 106.632C164.888 106.995 165.378 107.496 165.72 108.136C166.072 108.765 166.248 109.48 166.248 110.28ZM164.744 109.976C164.744 109.421 164.621 108.947 164.376 108.552C164.13 108.147 163.794 107.843 163.368 107.64C162.952 107.427 162.488 107.32 161.976 107.32C161.24 107.32 160.61 107.555 160.088 108.024C159.576 108.493 159.282 109.144 159.208 109.976H164.744ZM167.626 110.584C167.626 109.688 167.807 108.904 168.17 108.232C168.532 107.549 169.028 107.021 169.658 106.648C170.298 106.275 171.012 106.088 171.802 106.088C172.484 106.088 173.119 106.248 173.706 106.568C174.292 106.877 174.74 107.288 175.05 107.8V103.16H176.522V115H175.05V113.352C174.762 113.875 174.335 114.307 173.77 114.648C173.204 114.979 172.543 115.144 171.786 115.144C171.007 115.144 170.298 114.952 169.658 114.568C169.028 114.184 168.532 113.645 168.17 112.952C167.807 112.259 167.626 111.469 167.626 110.584ZM175.05 110.6C175.05 109.939 174.916 109.363 174.65 108.872C174.383 108.381 174.02 108.008 173.562 107.752C173.114 107.485 172.618 107.352 172.074 107.352C171.53 107.352 171.034 107.48 170.586 107.736C170.138 107.992 169.78 108.365 169.514 108.856C169.247 109.347 169.114 109.923 169.114 110.584C169.114 111.256 169.247 111.843 169.514 112.344C169.78 112.835 170.138 113.213 170.586 113.48C171.034 113.736 171.53 113.864 172.074 113.864C172.618 113.864 173.114 113.736 173.562 113.48C174.02 113.213 174.383 112.835 174.65 112.344C174.916 111.843 175.05 111.261 175.05 110.6Z" fill="#5A5A5A"/>
<rect x="33" y="212.931" width="24.625" height="12.7371" rx="3.39655" fill="#F3F4F8"/>
<rect x="61" y="206.601" width="25.0062" height="18.9071" rx="4.87926" fill="#F3F4F8"/>
<rect x="89.6641" y="199" width="25.0062" height="27.4458" rx="5.48916" fill="#F3F4F8"/>
<rect x="118.996" y="179.765" width="25.0062" height="45.743" rx="7.31889" fill="#006391" fill-opacity="0.15"/>
<rect x="147.664" y="165.737" width="25.0062" height="59.7709" rx="7.31889" fill="#006391" fill-opacity="0.52"/>
<rect x="176.328" y="152.929" width="25.0062" height="72.5789" rx="7.31889" fill="#006391" fill-opacity="0.91"/>
<rect x="204.992" y="145" width="25.0062" height="80.5077" rx="7.31889" fill="#006391"/>
<path d="M209.445 119.98C209.434 119.763 209.249 119.597 209.033 119.609L205.511 119.792C205.295 119.804 205.129 119.988 205.14 120.204C205.151 120.42 205.336 120.586 205.552 120.575L208.683 120.412L208.846 123.543C208.857 123.759 209.042 123.925 209.258 123.914C209.474 123.902 209.64 123.718 209.629 123.502L209.445 119.98ZM95.3772 171.035C109.179 168.335 131.428 162.562 153.339 154.011C175.237 145.466 196.857 134.124 209.345 120.262L208.762 119.738C196.404 133.456 174.93 144.744 153.054 153.281C131.192 161.813 108.989 167.574 95.2267 170.266L95.3772 171.035Z" fill="url(#paint0_linear_35_46)"/>
<defs>
<linearGradient id="paint0_linear_35_46" x1="92.651" y1="156.395" x2="211.705" y2="134.256" gradientUnits="userSpaceOnUse">
<stop stop-color="#001D2B" stop-opacity="0"/>
<stop offset="1" stop-color="#006391"/>
</linearGradient>
</defs>
</svg>
